<svg xmlns="http://www.w3.org/2000/svg" viewBox="0 0 800 600" width="100%" height="100%">
  <defs>
    <linearGradient id="primaryGrad" x1="0%" y1="0%" x2="100%" y2="100%">
      <stop offset="0%" stop-color="#00FF87" />
      <stop offset="100%" stop-color="#00E5FF" />
    </linearGradient>
    <linearGradient id="darkGrad" x1="0%" y1="0%" x2="0%" y2="100%">
      <stop offset="0%" stop-color="#181D26" />
      <stop offset="100%" stop-color="#0B0E14" />
    </linearGradient>
    
    <filter id="neonGlow" x="-20%" y="-20%" width="140%" height="140%">
      <feGaussianBlur stdDeviation="12" result="blur" />
      <feMerge>
        <feMergeNode in="blur" />
        <feMergeNode in="SourceGraphic" />
      </feMerge>
    </filter>
  </defs>

  <rect width="100%" height="100%" fill="#0B0E14" rx="16" />
  
  <g opacity="0.03" stroke="#FFFFFF" stroke-width="2" fill="none">
    <rect x="50" y="50" width="700" height="500" rx="10"/>
    <line x1="400" y1="50" x2="400" y2="550" />
    <circle cx="400" cy="300" r="100" />
    <circle cx="400" cy="300" r="5" fill="#FFFFFF"/>
  </g>

  <g transform="translate(400, 260)">
    <path d="M -160,-60 A 180,180 0 0,0 -160,60" fill="none" stroke="url(#primaryGrad)" stroke-width="6" stroke-linecap="round" opacity="0.3" />
    <path d="M -190,-90 A 220,220 0 0,0 -190,90" fill="none" stroke="url(#primaryGrad)" stroke-width="4" stroke-linecap="round" opacity="0.15" />
    
    <line x1="-140" y1="-30" x2="-90" y2="-30" stroke="url(#primaryGrad)" stroke-width="4" stroke-linecap="round" opacity="0.4" />
    <line x1="-160" y1="0" x2="-100" y2="0" stroke="url(#primaryGrad)" stroke-width="5" stroke-linecap="round" opacity="0.6" />
    <line x1="-130" y1="30" x2="-80" y2="30" stroke="url(#primaryGrad)" stroke-width="4" stroke-linecap="round" opacity="0.4" />

    <circle cx="0" cy="0" r="110" fill="url(#darkGrad)" stroke="#1F2633" stroke-width="8" />
    
    <path d="M -78,-78 A 110,110 0 0,1 110,0 A 110,110 0 0,1 -40,102" fill="none" stroke="url(#primaryGrad)" stroke-width="8" stroke-linecap="round" filter="url(#neonGlow)" />

    <g id="football-mesh" stroke="#10151D" stroke-width="4" fill="#1C2331">
      <path d="M -35,-70 L 0,-95 L 45,-80 L 25,-45 L -20,-40 Z" />
      <path d="M 45,-80 L 85,-45 L 65,-5 L 20,-20 L 25,-45 Z" />
      <path d="M -75,-25 L -20,-40 L -20,15 L -60,35 L -85,-10 Z" />
      <path d="M 65,-5 L 85,40 L 40,75 L 15,35 L 20,-20 Z" />
      <path d="M -20,15 L 15,35 L 0,85 L -45,70 L -60,35 Z" />
    </g>

    <polygon points="-15,-45 50,0 -15,45" fill="url(#primaryGrad)" filter="url(#neonGlow)" transform="translate(5,0)" />
    <polygon points="-5,-20 25,0 -5,20" fill="#0B0E14" opacity="0.3" transform="translate(5,0)" />
    
    <circle cx="95" cy="-95" r="8" fill="#FF3366" filter="url(#neonGlow)" />
    <circle cx="95" cy="-95" r="8" fill="#FF3366">
      <animate attributeName="opacity" values="1;0.3;1" dur="2s" repeatCount="indefinite"/>
    </circle>
  </g>

  <text x="400" y="450" font-family="'System-UI', '-apple-system', sans-serif" font-weight="900" font-size="42" fill="#FFFFFF" text-anchor="middle" letter-spacing="4">
    NET<tspan fill="url(#primaryGrad)">STRIKE</tspan>
  </text>
  
  <text x="400" y="485" font-family="'System-UI', '-apple-system', sans-serif" font-weight="600" font-size="14" fill="#6C7A9C" text-anchor="middle" letter-spacing="8">
    LIVE FOOTBALL BROADCASTING
  </text>

  <rect x="370" y="515" width="60" height="4" rx="2" fill="url(#primaryGrad)" opacity="0.8" />
</svg>
